<?xml version="1.0" encoding="UTF-8"?>
<svg id="_レイヤー_1" data-name="レイヤー 1" xmlns="http://www.w3.org/2000/svg" viewBox="0 0 96 96">
  <defs>
    <style>
      .cls-1, .cls-2 {
        fill: #fff;
      }

      .cls-3 {
        fill: #49c9d4;
      }

      .cls-2 {
        font-family: HachiMaruPop-Regular, 'Hachi Maru Pop';
        font-size: 60px;
      }
    </style>
  </defs>
  <g>
    <path class="cls-3" d="M48,93c-24.81,0-45-20.19-45-45S23.19,3,48,3s45,20.19,45,45-20.19,45-45,45Z"/>
    <path class="cls-1" d="M48,6c23.16,0,42,18.84,42,42s-18.84,42-42,42S6,71.16,6,48,24.84,6,48,6M48,0C21.49,0,0,21.49,0,48s21.49,48,48,48,48-21.49,48-48S74.51,0,48,0h0Z"/>
    <path class="cls-3" d="M48,3c24.81,0,45,20.19,45,45s-20.19,45-45,45S3,72.81,3,48,23.19,3,48,3M48,0C21.49,0,0,21.49,0,48s21.49,48,48,48,48-21.49,48-48S74.51,0,48,0h0Z"/>
  </g>
  <text class="cls-2" transform="translate(16.86 67.81)"><tspan x="0" y="0">旅</tspan></text>
</svg>